<?xml version="1.0" encoding="utf-8"?>
<!-- Generator: Adobe Illustrator 15.1.0, SVG Export Plug-In . SVG Version: 6.00 Build 0)  -->
<!DOCTYPE svg PUBLIC "-//W3C//DTD SVG 1.1//EN" "http://www.w3.org/Graphics/SVG/1.1/DTD/svg11.dtd">
<svg version="1.1" id="Layer_1" xmlns="http://www.w3.org/2000/svg" xmlns:xlink="http://www.w3.org/1999/xlink" x="0px" y="0px"
	 width="32px" height="32px" viewBox="0 0 32 32" enable-background="new 0 0 32 32" xml:space="preserve">
<path d="M26.14,14.929c-1.327,0-2.6,0.506-3.566,1.388v-6.24h-7.27v-0.032c1.066-0.999,1.67-2.383,1.67-3.852
	c0-2.918-2.376-5.292-5.294-5.292S6.388,3.275,6.388,6.193c0,1.471,0.603,2.855,1.665,3.853l-6.81,0.032v8.242h2.447l0.225-0.313
	c0.711-0.987,1.86-1.578,3.074-1.578c2.09,0,3.791,1.701,3.791,3.792c0,2.088-1.701,3.787-3.791,3.787
	c-1.211,0-2.361-0.591-3.076-1.581l-0.224-0.312H1.245v8.682h21.333v-6.674c0.967,0.881,2.239,1.386,3.565,1.386
	c2.917,0,5.291-2.372,5.291-5.288C31.431,17.303,29.056,14.929,26.14,14.929z M26.144,24.008c-1.214,0-2.364-0.591-3.078-1.581
	l-0.225-0.312h-1.764v7.182H2.745v-5.682h0.195c1.003,1.191,2.489,1.893,4.049,1.893c2.917,0,5.291-2.372,5.291-5.287
	c0-2.916-2.374-5.292-5.291-5.292c-1.564,0-3.049,0.7-4.049,1.889H2.743v-5.241h6.81V9.35L9.277,9.125
	c-0.884-0.723-1.39-1.791-1.39-2.932c0-2.091,1.701-3.792,3.792-3.792c2.091,0,3.793,1.701,3.793,3.792
	c0,1.139-0.508,2.207-1.394,2.932L13.804,9.35v2.228h7.27v6.742h1.768l0.225-0.313c0.713-0.988,1.863-1.579,3.075-1.579
	c2.09,0,3.792,1.701,3.794,3.792C29.935,22.309,28.234,24.008,26.144,24.008z"/>
</svg>
