<?xml version="1.0" encoding="utf-8"?>
<!-- Generator: Adobe Illustrator 15.1.0, SVG Export Plug-In . SVG Version: 6.00 Build 0)  -->
<!DOCTYPE svg PUBLIC "-//W3C//DTD SVG 1.1//EN" "http://www.w3.org/Graphics/SVG/1.1/DTD/svg11.dtd">
<svg version="1.1" id="Layer_1" xmlns="http://www.w3.org/2000/svg" xmlns:xlink="http://www.w3.org/1999/xlink" x="0px" y="0px"
	 width="32px" height="32px" viewBox="0 0 32 32" enable-background="new 0 0 32 32" xml:space="preserve">
<path d="M18.625,22.883V5.084L7.771,9.102l-0.07,9.949L18.625,22.883z M15.339,15.04c-0.151-0.078-0.831-0.496-1.005-0.625
	c-0.173-0.126-0.831-0.725-0.912-0.763c-0.418,0.701-0.95,1.532-1.549,2.31c-0.206,0.267-0.831,1.134-1.212,1.404
	c-0.059,0.035-0.393,0.077-0.443,0.049c0.187-0.156,0.72-0.878,0.95-1.173c0.287-0.372,1.666-2.49,1.894-2.975
	c0.241-0.485,0.971-2.091,1.005-2.241c-0.116-0.013-1.027,0.332-1.271,0.422c-0.234,0.075-0.869,0.239-0.914,0.278
	c-0.046,0.051-0.01,0.206-0.035,0.254c-0.023,0.054-0.23,0.168-0.357,0.191c-0.116,0.041-0.38,0.052-0.544,0
	c-0.15-0.04-0.288-0.205-0.322-0.267c0,0-0.045-0.077-0.058-0.294c0.139-0.052,0.371-0.064,0.625-0.14
	c0.251-0.074,0.876-0.279,1.211-0.409c0.334-0.127,0.985-0.394,1.179-0.447c0.206-0.035,0.727-0.419,1.005-0.521
	c0.277-0.101,0.476-0.233,0.487-0.165c0.01,0.064,0,0.341-0.011,0.419c-0.011,0.064-0.565,1.262-0.646,1.453
	c-0.048,0.103-0.371,0.775-0.892,1.67c0.187,0.089,0.579,0.268,0.741,0.356c0.196,0.103,1.571,0.742,1.639,0.767
	c0.071,0.026,0.201,0.612,0.175,0.712C16.055,15.398,15.491,15.107,15.339,15.04z M13.665,9.47
	c-0.116,0.241-0.406,0.409-0.578,0.484c-0.172,0.076-0.463,0.152-0.694,0.152c-0.103-0.013-0.313-0.051-0.565-0.333
	c-0.139-0.165-0.243-0.61-0.196-0.558c0.046,0.05,0.381,0.104,0.53,0.065c0.153-0.04,0.512-0.152,0.673-0.207
	c0.17-0.064,0.518-0.165,0.634-0.178c0.116,0,0.207,0.052,0.24,0.217C13.745,9.329,13.687,9.417,13.665,9.47z M28.275,8V1.446
	l-8.961,3.381L28.275,8z M28.777,21.956l-2.834-11.335l-1.563-0.537l-3.379,9.25l1.596,0.529l0.707-1.896l3.299,1.121l0.58,2.332
	L28.777,21.956z M26.086,17.005l-2.172-0.724l1.189-3.19L26.086,17.005z M6.426,22.413l-3.483,3.481
	c-0.219,0.223-0.219,0.571,0,0.79l3.483,3.494v0.606c0,0.229-0.141,0.425-0.343,0.516C5.872,31.39,5.63,31.346,5.47,31.183
	l-4.493-4.498c-0.22-0.223-0.22-0.571,0-0.79l4.493-4.493c0.104-0.112,0.246-0.169,0.394-0.169c0.071,0,0.148,0.021,0.219,0.046
	c0.203,0.087,0.343,0.289,0.343,0.515V22.413z M31.188,9.038v18.609c-12.088-4.24-12.105-4.24-12.105-4.24
	c-0.057,0.029,0.395-0.47-0.605-0.099l-1.494-0.544c0.014-0.239,0.021-0.471,0.021-0.683c0-1.83-1.375-4.516-1.44-4.626
	c-0.041-0.1-0.138-0.151-0.244-0.151c-0.026,0-0.051,0-0.077,0.01c-0.135,0.047-0.212,0.164-0.203,0.3
	c0.203,1.907,0.048,3.289-0.468,4.272l-7.412-2.7V8.828C7.175,8.777,7.19,8.689,7.224,8.657C7.315,8.535,7.442,8.5,7.534,8.466
	c0.048-0.019,1.002-0.363,2.332-0.861V0.979l8.726,3.414c0.113-0.034,9.846-3.743,9.984-3.743c0.17,0,0.311,0.138,0.311,0.363v7.209
	L31.188,9.038z M14.572,21.886l2.41,0.878c-0.067,1.189-0.356,2.652-1.459,3.782c-1.104,1.136-2.835,1.771-5.257,1.939v2.303
	c0,0.229-0.139,0.426-0.341,0.516c-0.21,0.089-0.458,0.045-0.615-0.118l-4.494-4.494c-0.22-0.228-0.22-0.575,0-0.793l4.494-4.494
	c0.103-0.112,0.245-0.168,0.394-0.168c0.071,0,0.15,0.021,0.221,0.045c0.203,0.087,0.341,0.29,0.341,0.516v2.204
	c1.888-0.148,3.099-0.595,3.843-1.43C14.29,22.37,14.44,22.138,14.572,21.886z"/>
</svg>
