<?xml version="1.0" encoding="utf-8"?>
<!-- Generator: Adobe Illustrator 15.1.0, SVG Export Plug-In . SVG Version: 6.00 Build 0)  -->
<!DOCTYPE svg PUBLIC "-//W3C//DTD SVG 1.1//EN" "http://www.w3.org/Graphics/SVG/1.1/DTD/svg11.dtd">
<svg version="1.1" id="Layer_1" xmlns="http://www.w3.org/2000/svg" xmlns:xlink="http://www.w3.org/1999/xlink" x="0px" y="0px"
	 width="32px" height="32px" viewBox="0 0 32 32" enable-background="new 0 0 32 32" xml:space="preserve">
<path d="M3.708,8.497C2.372,10.682,1.602,13.251,1.602,16c0,7.951,6.446,14.398,14.398,14.398c7.951,0,14.398-6.447,14.398-14.398
	c0-7.953-6.447-14.399-14.398-14.399c-2.82,0-5.451,0.811-7.671,2.212L9.23,5.162c1.963-1.229,4.284-1.939,6.77-1.939
	c7.056,0,12.777,5.72,12.777,12.777c0,7.054-5.722,12.777-12.777,12.777C8.943,28.777,3.223,23.055,3.223,16
	c0-2.362,0.641-4.575,1.759-6.474L3.708,8.497z M18.486,16.266c-0.756,0.826-2.085,0.843-2.965,0.037l0,0
	c-0.882-0.805-0.981-2.129-0.225-2.956c0,0,7.32-4.973,8.652-5.861L18.486,16.266z"/>
</svg>
