<?xml version="1.0" encoding="utf-8"?>
<!-- Generator: Adobe Illustrator 15.1.0, SVG Export Plug-In . SVG Version: 6.00 Build 0)  -->
<!DOCTYPE svg PUBLIC "-//W3C//DTD SVG 1.1//EN" "http://www.w3.org/Graphics/SVG/1.1/DTD/svg11.dtd">
<svg version="1.1" id="Layer_1" xmlns="http://www.w3.org/2000/svg" xmlns:xlink="http://www.w3.org/1999/xlink" x="0px" y="0px"
	 width="32px" height="32px" viewBox="0 0 32 32" enable-background="new 0 0 32 32" xml:space="preserve">
<path d="M19.773,29.349H12.16c-0.926,0-1.679-0.755-1.679-1.683c0-0.395,0.188-0.763,0.408-1.188
	c0.149-0.291,0.31-0.605,0.417-0.935H4.073c-1.714,0-3.107-1.396-3.107-3.111V6.258c0-1.713,1.394-3.106,3.107-3.106h23.786
	c1.713,0,3.106,1.394,3.106,3.106v16.173c0,0.827-0.322,1.606-0.911,2.195c-0.588,0.589-1.367,0.914-2.195,0.914H20.63
	c0.112,0.34,0.277,0.666,0.421,0.951c0.215,0.426,0.402,0.795,0.402,1.172C21.453,28.592,20.699,29.349,19.773,29.349z M4.073,4.61
	c-0.91,0-1.65,0.74-1.65,1.649v16.172c0,0.912,0.74,1.652,1.65,1.652h8.815v0.729c0,0.956-0.407,1.75-0.703,2.328
	c-0.099,0.192-0.234,0.456-0.249,0.546c0.001,0.097,0.107,0.203,0.223,0.203h7.613c0.115,0,0.222-0.106,0.222-0.226
	c-0.014-0.06-0.148-0.322-0.244-0.516c-0.296-0.589-0.705-1.397-0.705-2.336v-0.729h8.814c0.91,0,1.65-0.742,1.65-1.652
	L29.509,6.258c0-0.909-0.741-1.649-1.649-1.649L4.073,4.61L4.073,4.61z M26.886,21.348H5.393c-0.628,0-1.16-0.554-1.16-1.208V7.712
	c0-0.654,0.531-1.206,1.16-1.206h21.491c0.63,0,1.161,0.552,1.161,1.206V20.14C28.045,20.794,27.515,21.348,26.886,21.348z
	 M5.69,19.889h20.898V7.964H5.69V19.889z M8.888,17.065c-0.09,0.092-0.228,0.092-0.319,0l-0.345-0.344
	c-0.089-0.091-0.089-0.229,0-0.319l2.719-2.72l-2.719-2.719c-0.089-0.09-0.089-0.229,0-0.319l0.345-0.345
	c0.091-0.09,0.229-0.09,0.319,0l3.225,3.223c0.089,0.091,0.089,0.229,0,0.319L8.888,17.065z M19.581,17.448
	c0,0.125-0.098,0.223-0.221,0.223h-6.646c-0.125,0-0.221-0.098-0.221-0.223v-0.443c0-0.124,0.097-0.222,0.221-0.222h6.646
	c0.123,0,0.221,0.098,0.221,0.222V17.448z"/>
</svg>
