<?xml version="1.0" encoding="utf-8"?>
<!-- Generator: Adobe Illustrator 15.1.0, SVG Export Plug-In . SVG Version: 6.00 Build 0)  -->
<!DOCTYPE svg PUBLIC "-//W3C//DTD SVG 1.1//EN" "http://www.w3.org/Graphics/SVG/1.1/DTD/svg11.dtd">
<svg version="1.1" id="Layer_1" xmlns="http://www.w3.org/2000/svg" xmlns:xlink="http://www.w3.org/1999/xlink" x="0px" y="0px"
	 width="32px" height="32px" viewBox="0 0 32 32" enable-background="new 0 0 32 32" xml:space="preserve">
<path d="M16.936,27.216H28.62V11.911h-6.222c-0.791,0-1.437-0.643-1.437-1.435V4.257H9.486v1.659L7.571,5.95V3.78
	c0-0.793,0.644-1.437,1.437-1.437H22.4c0.791,0,1.896,0.463,2.451,1.017l4.664,4.664c0.551,0.553,1.017,1.659,1.017,2.451v17.219
	c0,0.793-0.644,1.436-1.437,1.436H17.012 M20.884,14.674h4.847c0.271,0,0.479,0.21,0.479,0.478v0.958
	c0,0.269-0.208,0.479-0.479,0.479h-4.847c-0.269,0-0.479-0.21-0.479-0.479v-0.958C20.404,14.884,20.615,14.674,20.884,14.674z
	 M26.206,18.977v0.959c0,0.271-0.208,0.479-0.478,0.479h-6.266c-0.271,0-0.479-0.209-0.479-0.479v-0.959
	c0-0.268,0.209-0.477,0.479-0.477h6.268C25.998,18.5,26.206,18.709,26.206,18.977z M26.206,22.807v0.953
	c0,0.271-0.208,0.48-0.478,0.48h-8.25c-0.271,0-0.479-0.209-0.479-0.48v-0.953c0-0.271,0.207-0.479,0.479-0.479h8.25
	C25.998,22.326,26.206,22.537,26.206,22.807z M22.879,9.998h5.619c-0.089-0.254-0.225-0.508-0.329-0.612l-4.679-4.68
	c-0.104-0.104-0.358-0.239-0.611-0.328V9.998z M3.662,31.372c-0.219,0-0.428-0.046-0.621-0.136C2.49,31.014,2.11,30.445,2.11,29.801
	v-0.143l2.764-7.023l-0.618,0.012c-0.48,0.097-0.993-0.066-1.328-0.42c-0.361-0.34-0.512-0.892-0.364-1.41l0.313-1.099l-1.11-0.284
	c-0.5-0.119-0.907-0.516-1.05-1.031c-0.129-0.536,0.028-1.075,0.406-1.433l0.805-0.788l-0.814-0.796
	c-0.37-0.352-0.526-0.893-0.403-1.403c0.149-0.539,0.556-0.935,1.069-1.058l1.098-0.28l-0.312-1.096
	c-0.147-0.521,0.003-1.072,0.392-1.44c0.32-0.342,0.901-0.51,1.409-0.367l1.099,0.313l0.284-1.11
	c0.12-0.506,0.535-0.921,1.053-1.047C7.216,7.781,7.859,7.92,8.218,8.304L9.003,9.11l0.795-0.819
	c0.355-0.375,0.907-0.528,1.424-0.39c0.5,0.122,0.916,0.537,1.039,1.054l0.281,1.099l1.095-0.313
	c0.523-0.146,1.083,0.014,1.442,0.396c0.358,0.338,0.509,0.889,0.364,1.408l-0.313,1.099l1.109,0.283
	c0.503,0.121,0.912,0.519,1.05,1.034c0.132,0.527-0.023,1.069-0.4,1.43l-0.808,0.79l0.813,0.793
	c0.371,0.349,0.527,0.891,0.401,1.403c-0.147,0.539-0.558,0.937-1.071,1.056l-1.095,0.28l0.312,1.099
	c0.146,0.518-0.003,1.067-0.39,1.438c-0.244,0.258-0.625,0.421-1.018,0.421l0,0c-0.094,0-0.189-0.009-0.282-0.026l-0.286-0.004
	l2.718,6.729v0.146c0,0.644-0.379,1.213-0.966,1.449c-0.15,0.071-0.359,0.115-0.584,0.115c-0.405,0-0.792-0.156-1.089-0.438
	L9.06,25.939l-4.256,4.932C4.456,31.212,4.066,31.372,3.662,31.372z M3.647,29.852l0.015,0.021c0.013,0,0.033-0.012,0.053-0.03
	l5.29-6.133l5.6,5.871l0.046-0.004l-3.42-8.468l2.815,0.063l-0.779-2.528l2.602-0.666l-1.935-1.794l1.913-1.87l-2.581-0.597
	L14,11.138l-2.529,0.782l-0.666-2.604l-1.801,1.946L7.132,9.339l-0.595,2.582L3.96,11.185l0.782,2.532L2.14,14.381l1.933,1.8
	l-1.909,1.87l2.579,0.598l-0.734,2.578l0.145-0.078l2.94-0.053L3.647,29.852z"/>
</svg>
