<?xml version="1.0" encoding="utf-8"?>
<!-- Generator: Adobe Illustrator 15.1.0, SVG Export Plug-In . SVG Version: 6.00 Build 0)  -->
<!DOCTYPE svg PUBLIC "-//W3C//DTD SVG 1.1//EN" "http://www.w3.org/Graphics/SVG/1.1/DTD/svg11.dtd">
<svg version="1.1" id="Layer_1" xmlns="http://www.w3.org/2000/svg" xmlns:xlink="http://www.w3.org/1999/xlink" x="0px" y="0px"
	 width="32px" height="32px" viewBox="0 0 32 32" enable-background="new 0 0 32 32" xml:space="preserve">
<path fill="none" d="M58.57,21.673c-0.016,0.021-0.031,0.044-0.047,0.065l0.627-0.479c-0.057-0.051-0.109-0.104-0.162-0.159
	L58.57,21.673z"/>
<path fill="none" d="M58.15,19.076c0-0.032,0-0.063,0-0.096c0-0.043,0-0.086,0.002-0.129l-0.746,0.112L58.15,19.076z"/>
<path fill="none" d="M63.378,21.243l0.634,0.496c-0.027-0.038-0.056-0.077-0.082-0.116l-0.381-0.553
	C63.494,21.13,63.438,21.188,63.378,21.243z"/>
<path fill="none" d="M61.262,22.873l0.092-0.791c-0.07,0.002-0.142,0.002-0.211,0L61.262,22.873z"/>
<path fill="none" d="M65.126,18.992l-0.769-0.117c0,0.035,0.002,0.07,0.002,0.105c0,0.043-0.002,0.086-0.004,0.129L65.126,18.992z"
	/>
<path d="M30.652,2.472v26.418c0,0.803-0.652,1.455-1.457,1.455H8.827c-0.804,0-1.457-0.652-1.457-1.455v-1.867h1.942v1.384h19.397
	V2.956H9.312v1.383H7.37V2.472c0-0.803,0.653-1.455,1.457-1.455h20.368C30,1.017,30.652,1.669,30.652,2.472z M9.821,24.434
	c0.096-0.365,0.145-0.732,0.186-1.094c0.04-0.016,0.079-0.031,0.117-0.048l0.788,0.613c0.153,0.095,0.302,0.14,0.458,0.14
	c0.617,0,1.778-1.467,1.778-1.467l0,0c0.126-0.148,0.188-0.313,0.188-0.498c0-0.182-0.069-0.363-0.19-0.506
	c-0.18-0.219-0.379-0.461-0.569-0.717c0.021-0.045,0.04-0.096,0.061-0.144l1.049-0.159c0.347-0.064,0.619-0.399,0.619-0.763v-1.595
	c0-0.37-0.271-0.699-0.645-0.768l-1.011-0.154c-0.024-0.063-0.051-0.127-0.08-0.188c0.071-0.093,0.143-0.185,0.214-0.274
	c0.121-0.153,0.241-0.307,0.364-0.475c0.1-0.144,0.149-0.294,0.149-0.461c0-0.188-0.062-0.363-0.144-0.452
	c-0.302-0.424-0.762-0.849-1.133-1.19l-0.142-0.13c-0.299-0.251-0.749-0.237-1.011-0.007l-0.753,0.569
	c-0.042-0.019-0.083-0.036-0.127-0.053l-0.153-1.002c-0.044-0.382-0.375-0.669-0.768-0.669H7.468c-0.361,0-0.672,0.243-0.754,0.581
	c-0.098,0.364-0.145,0.735-0.188,1.098c-0.039,0.015-0.079,0.031-0.117,0.049l-0.756-0.587c-0.15-0.109-0.32-0.167-0.488-0.167
	c-0.633,0-1.794,1.484-1.804,1.499C3.321,15.47,3.2,15.636,3.2,15.878c0,0.188,0.071,0.372,0.185,0.499
	c0.196,0.238,0.387,0.477,0.571,0.721c-0.022,0.051-0.043,0.102-0.063,0.149l-1.041,0.157c-0.351,0.056-0.625,0.393-0.625,0.766
	v1.596c0,0.379,0.276,0.707,0.646,0.765l1.008,0.149c0.025,0.064,0.053,0.129,0.082,0.193c-0.071,0.092-0.143,0.182-0.213,0.273
	c-0.121,0.153-0.241,0.307-0.356,0.463c-0.105,0.143-0.16,0.301-0.16,0.47s0.051,0.328,0.148,0.465
	c0.313,0.435,0.792,0.867,1.176,1.215l0.064,0.058c0.285,0.285,0.789,0.272,1.034,0.06l0.767-0.583
	c0.041,0.02,0.083,0.036,0.125,0.051L6.7,24.345c0.042,0.378,0.38,0.675,0.768,0.675h1.598C9.425,25.02,9.736,24.771,9.821,24.434z
	 M7.468,22.573l-0.303-0.099c-0.212-0.066-0.397-0.144-0.566-0.231l-0.29-0.151l-1.122,0.854c-0.292-0.266-0.629-0.573-0.866-0.863
	c0.077-0.102,0.156-0.201,0.235-0.301c0.143-0.182,0.285-0.362,0.421-0.551l0.188-0.258l-0.152-0.283
	c-0.111-0.209-0.198-0.416-0.256-0.615L4.664,19.76l-1.412-0.211v-1.167l1.413-0.213l0.096-0.306
	c0.059-0.188,0.137-0.371,0.246-0.58l0.146-0.277l-0.182-0.257c-0.211-0.296-0.433-0.578-0.669-0.868
	c0.215-0.251,0.628-0.675,0.869-0.872l1.118,0.871l0.293-0.154c0.185-0.098,0.383-0.181,0.571-0.24l0.314-0.101l0.063-0.527
	c0.034-0.295,0.069-0.6,0.13-0.888h1.19l0.217,1.417l0.304,0.097c0.205,0.064,0.389,0.141,0.562,0.233l0.289,0.154l1.132-0.855
	c0.276,0.254,0.602,0.558,0.856,0.865c-0.077,0.101-0.154,0.199-0.232,0.299c-0.143,0.183-0.285,0.365-0.422,0.552l-0.188,0.261
	l0.152,0.282c0.109,0.205,0.196,0.41,0.258,0.611l0.094,0.309l1.408,0.216v1.17l-1.404,0.213l-0.101,0.295
	c-0.082,0.239-0.157,0.416-0.243,0.574l-0.152,0.276l0.18,0.261c0.221,0.321,0.455,0.612,0.673,0.879
	c-0.221,0.255-0.635,0.683-0.875,0.878l-1.114-0.872L9.95,22.236c-0.187,0.1-0.378,0.179-0.569,0.236l-0.319,0.101l-0.055,0.479
	c-0.035,0.313-0.07,0.636-0.136,0.94H7.683L7.468,22.573z M10.621,18.98c0-1.299-1.057-2.355-2.354-2.355
	c-1.299,0-2.354,1.057-2.354,2.355c0,1.297,1.056,2.354,2.354,2.354C9.564,21.334,10.621,20.279,10.621,18.98z M9.596,18.98
	c0,0.731-0.597,1.328-1.329,1.328c-0.733,0-1.33-0.597-1.33-1.328c0-0.734,0.597-1.33,1.33-1.33
	C8.999,17.65,9.596,18.246,9.596,18.98z M26.693,12.535l-7.771-7.77c-0.17-0.17-0.399-0.271-0.644-0.271
	c-0.5,0-0.913,0.415-0.913,0.914V9.52H1.725c-0.5,0-0.914,0.416-0.914,0.915v5.485c0,0.498,0.414,0.912,0.914,0.912h0.56
	c0.123-0.066,0.249-0.128,0.39-0.156c-0.14-0.227-0.223-0.511-0.223-0.797c0-0.32,0.102-0.623,0.301-0.9
	c0,0,1.304-1.812,2.414-1.812c0.281,0,0.558,0.079,0.807,0.23c0.006-0.022,0.012-0.044,0.018-0.066
	c0.161-0.662,0.771-1.137,1.479-1.137h1.598c0.728,0,1.347,0.507,1.491,1.2c0.481-0.306,1.3-0.284,1.803,0.138l0.167,0.153
	c0.374,0.343,0.885,0.814,1.236,1.308c0.155,0.159,0.283,0.518,0.283,0.887c0,0.292-0.079,0.567-0.235,0.818
	c0.126,0.026,0.235,0.083,0.348,0.136h3.208v4.113c0,0.5,0.414,0.914,0.914,0.914c0.241,0,0.473-0.101,0.643-0.271l7.771-7.771
	c0.172-0.171,0.271-0.4,0.271-0.643C26.965,12.935,26.865,12.706,26.693,12.535z"/>
</svg>
