<?xml version="1.0" encoding="utf-8"?>
<!-- Generator: Adobe Illustrator 15.1.0, SVG Export Plug-In . SVG Version: 6.00 Build 0)  -->
<!DOCTYPE svg PUBLIC "-//W3C//DTD SVG 1.1//EN" "http://www.w3.org/Graphics/SVG/1.1/DTD/svg11.dtd">
<svg version="1.1" id="Layer_1" xmlns="http://www.w3.org/2000/svg" xmlns:xlink="http://www.w3.org/1999/xlink" x="0px" y="0px"
	 width="32px" height="32px" viewBox="0 0 32 32" enable-background="new 0 0 32 32" xml:space="preserve">
<path d="M29.839,27.85h-3.07v2.129l-5.224-0.002V17.241c-1.293-0.374-2.465-1.064-3.412-2.012
	c-3.105-3.106-3.106-8.158-0.002-11.261c1.503-1.506,3.505-2.335,5.632-2.335c2.127,0,4.127,0.83,5.634,2.335
	c3.104,3.105,3.105,8.158,0,11.265c-0.73,0.729-1.584,1.301-2.542,1.701l0.002,5.734l2.982-0.002V27.85z M25.595,26.675h3.069
	v-2.833h-2.982v-7.72l0.387-0.141c0.952-0.343,1.792-0.874,2.497-1.578c2.647-2.647,2.647-6.956,0-9.603
	c-1.283-1.284-2.988-1.991-4.803-1.991c-1.813,0-3.519,0.707-4.802,1.991c-2.644,2.646-2.643,6.951,0.002,9.598
	c0.901,0.903,2.044,1.53,3.303,1.816l0.456,0.104L22.72,28.802l2.875,0.002V26.675z M26.795,12.634
	c-1.672,1.672-4.395,1.672-6.069-0.002c-1.67-1.673-1.67-4.394,0-6.065c1.675-1.675,4.397-1.676,6.071-0.003
	C28.47,8.236,28.47,10.959,26.795,12.634z M21.557,7.396c-1.214,1.213-1.212,3.189,0.002,4.403c1.216,1.215,3.19,1.217,4.404,0.003
	c1.218-1.216,1.22-3.195,0.004-4.411C24.751,6.179,22.774,6.18,21.557,7.396z M8.625,3.863c-3.069,0-5.557,2.489-5.557,5.558
	c0,3.068,2.488,5.559,5.557,5.559s5.558-2.491,5.558-5.559C14.183,6.352,11.694,3.863,8.625,3.863z M16.254,17.88
	c0-0.728-0.589-1.315-1.315-1.315H2.312c-0.727,0-1.315,0.588-1.315,1.315v10.368c0,0.727,0.589,1.315,1.315,1.315h12.627
	c0.726,0,1.315-0.589,1.315-1.315V17.88z"/>
</svg>
