<?xml version="1.0" encoding="utf-8"?>
<!-- Generator: Adobe Illustrator 15.1.0, SVG Export Plug-In . SVG Version: 6.00 Build 0)  -->
<!DOCTYPE svg PUBLIC "-//W3C//DTD SVG 1.1//EN" "http://www.w3.org/Graphics/SVG/1.1/DTD/svg11.dtd">
<svg version="1.1" id="Layer_1" xmlns="http://www.w3.org/2000/svg" xmlns:xlink="http://www.w3.org/1999/xlink" x="0px" y="0px"
	 width="32px" height="32px" viewBox="0 0 32 32" enable-background="new 0 0 32 32" xml:space="preserve">
<path d="M26.898,28.443c-0.705,0-1.393-0.284-1.885-0.779l-5.449-5.465c-0.498-0.479-0.789-1.168-0.789-1.883l-0.002-0.14
	c-0.002-0.354,0.011-0.645,0.139-0.935l-2.871-2.867l-1.363,1.361c-0.032,0.031-0.064,0.063-0.099,0.093
	c0.104,0.239,0.171,0.521,0.171,0.853c0,0.565-0.216,1.098-0.624,1.531l-0.19,0.206c-0.498,0.545-1.18,1.292-2.219,1.292
	c-0.583,0-1.149-0.232-1.554-0.645l-6.124-6.119c-0.407-0.406-0.64-0.972-0.64-1.551c0-1.042,0.749-1.724,1.296-2.223l0.201-0.185
	c0.431-0.408,0.962-0.624,1.536-0.624c0.33,0,0.608,0.066,0.849,0.171c0.028-0.034,0.059-0.067,0.091-0.1l6.078-6.078
	c0.032-0.032,0.066-0.063,0.101-0.092c-0.105-0.24-0.171-0.519-0.171-0.849c0-0.573,0.216-1.104,0.626-1.537l0.182-0.198
	c0.499-0.548,1.183-1.298,2.223-1.298c0.577,0,1.144,0.233,1.551,0.639L24.09,7.15c0.406,0.405,0.641,0.971,0.641,1.551
	c0,1.038-0.746,1.719-1.291,2.217l-0.203,0.189c-0.437,0.41-0.967,0.625-1.536,0.625c-0.331,0-0.609-0.066-0.853-0.171
	c-0.027,0.035-0.06,0.068-0.092,0.101l-1.363,1.363l2.871,2.868c0.248-0.108,0.502-0.137,0.803-0.137l0.269,0.001
	c0.69,0,1.378,0.278,1.888,0.765l5.459,5.463c0.495,0.509,0.776,1.195,0.776,1.896c0.005,0.7-0.274,1.391-0.772,1.885l-1.887,1.897
	C28.277,28.163,27.591,28.443,26.898,28.443z M16.041,14.257l4.91,4.904l-0.533,0.53c-0.146,0.145-0.146,0.145-0.145,0.477
	l0.002,0.148c0,0.304,0.127,0.606,0.34,0.813l5.463,5.477c0.426,0.428,1.209,0.43,1.668-0.012l1.876-1.891
	c0.213-0.212,0.337-0.518,0.335-0.817c0-0.312-0.129-0.626-0.346-0.847l-5.44-5.445c-0.219-0.209-0.528-0.336-0.837-0.336
	l-0.268-0.001c-0.146,0-0.188,0.007-0.201,0.011c0,0-0.043,0.02-0.152,0.131l-0.529,0.535l-4.912-4.908l3.485-3.443l0,0
	c0.005,0.004,0.009,0.009,0.015,0.014L20.9,9.728c0.369,0.376,0.512,0.506,0.8,0.506c0.187,0,0.353-0.071,0.508-0.216l0.222-0.205
	c0.484-0.443,0.803-0.76,0.803-1.11c0-0.182-0.073-0.365-0.199-0.49l-6.129-6.126c-0.125-0.125-0.309-0.201-0.489-0.201
	c-0.352,0-0.669,0.32-1.115,0.809l-0.2,0.217c-0.148,0.157-0.217,0.318-0.217,0.508c0,0.285,0.128,0.426,0.499,0.79l0.137,0.136
	c0.004,0.004,0.009,0.009,0.014,0.014l0,0l-8.157,8.157c-0.005-0.005-0.01-0.01-0.015-0.015l-0.13-0.131
	c-0.394-0.403-0.524-0.505-0.796-0.505c-0.191,0-0.352,0.068-0.506,0.214l-0.221,0.204c-0.487,0.444-0.806,0.761-0.806,1.114
	c0,0.182,0.075,0.365,0.2,0.491l6.126,6.123c0.126,0.127,0.309,0.201,0.491,0.201c0.351,0,0.668-0.318,1.111-0.804l0.205-0.222
	c0.146-0.157,0.216-0.318,0.216-0.506c0-0.291-0.13-0.435-0.507-0.803l-0.127-0.125c-0.001-0.001-0.002-0.002-0.002-0.003
	l-0.004-0.004L16.041,14.257z M17.408,23.768H3.016v2.472h14.393V23.768z M20.014,28.092H0.409v2.472h19.604V28.092z"/>
</svg>
