<?xml version="1.0" encoding="utf-8"?>
<!-- Generator: Adobe Illustrator 15.1.0, SVG Export Plug-In . SVG Version: 6.00 Build 0)  -->
<!DOCTYPE svg PUBLIC "-//W3C//DTD SVG 1.1//EN" "http://www.w3.org/Graphics/SVG/1.1/DTD/svg11.dtd">
<svg version="1.1" id="Layer_1" xmlns="http://www.w3.org/2000/svg" xmlns:xlink="http://www.w3.org/1999/xlink" x="0px" y="0px"
	 width="32px" height="32px" viewBox="0 0 32 32" enable-background="new 0 0 32 32" xml:space="preserve">
<path d="M26.782,27.294c-0.679,0-1.339-0.272-1.812-0.75l-5.25-5.26c-0.479-0.461-0.76-1.125-0.76-1.813l-0.001-0.133
	c-0.002-0.344,0.011-0.621,0.133-0.899l-2.763-2.76l-0.628,0.628l-1.021-1.021l1.65-1.649l4.728,4.723l-0.516,0.512
	c-0.111,0.109-0.128,0.148-0.128,0.149c-0.013,0.034-0.011,0.192-0.011,0.31v0.142c0,0.292,0.123,0.585,0.328,0.782l5.261,5.271
	c0.409,0.411,1.161,0.413,1.604-0.013l1.805-1.818c0.205-0.204,0.324-0.496,0.324-0.788c0-0.302-0.121-0.597-0.334-0.813
	l-5.238-5.24c-0.209-0.201-0.506-0.323-0.803-0.323h-0.147c-0.12-0.004-0.269-0.003-0.306,0.011c0,0-0.039,0.018-0.146,0.125
	l-0.511,0.514l-4.728-4.722l3.355-3.316v0.001c0.005,0.004,0.009,0.008,0.013,0.012l0.126,0.128c0.354,0.361,0.49,0.485,0.77,0.485
	c0.18,0,0.339-0.067,0.484-0.206l0.211-0.194c0.469-0.428,0.777-0.734,0.777-1.073c0-0.175-0.072-0.352-0.191-0.471L17.16,1.922
	c-0.12-0.121-0.297-0.192-0.471-0.192c-0.339,0-0.646,0.309-1.076,0.779l-0.191,0.207c-0.143,0.152-0.209,0.307-0.209,0.49
	c0,0.26,0.097,0.384,0.478,0.759l0.133,0.132c0.005,0.005,0.011,0.011,0.017,0.017l0,0c0,0,0,0,0.001,0L14.817,5.13h-0.001
	l-6.827,6.836c0-0.001-0.001-0.001-0.001-0.002l0,0c-0.006-0.006-0.012-0.012-0.018-0.018l-0.122-0.124
	c-0.379-0.387-0.504-0.485-0.766-0.485c-0.184,0-0.339,0.065-0.486,0.206l-0.212,0.195c-0.47,0.428-0.778,0.733-0.778,1.074
	c0,0.175,0.072,0.352,0.193,0.472l1.214,1.214l-1.021,1.021l-1.214-1.214c-0.391-0.392-0.616-0.936-0.616-1.494
	c0-1.004,0.723-1.662,1.25-2.142l0.191-0.176c0.412-0.392,0.924-0.601,1.479-0.601c0.318,0,0.585,0.064,0.817,0.165
	c0.027-0.033,0.057-0.065,0.087-0.096l5.852-5.851c0.031-0.031,0.063-0.061,0.097-0.088c-0.101-0.231-0.165-0.499-0.165-0.818
	c0-0.55,0.208-1.062,0.603-1.479l0.175-0.189c0.481-0.528,1.14-1.251,2.142-1.251c0.559,0,1.102,0.225,1.492,0.615l5.897,5.898
	c0.392,0.39,0.614,0.935,0.614,1.494c0,1.002-0.721,1.66-1.248,2.141l-0.191,0.177c-0.414,0.393-0.926,0.601-1.477,0.601
	c-0.318,0-0.588-0.064-0.818-0.165c-0.027,0.034-0.059,0.066-0.089,0.098l-1.313,1.313l2.762,2.76
	c0.279-0.122,0.564-0.131,0.896-0.131h0.138c0.668,0,1.328,0.268,1.814,0.736l5.256,5.257c0.479,0.491,0.748,1.153,0.748,1.824
	c0.005,0.679-0.27,1.341-0.747,1.813l-1.813,1.828C28.107,27.025,27.445,27.294,26.782,27.294z M10.6,31.834H8.54
	c-0.526,0-0.969-0.388-1.03-0.901l-0.195-1.298c-0.039-0.016-0.076-0.031-0.114-0.047l-0.968,0.744
	c-0.301,0.275-0.988,0.315-1.383-0.072c-0.561-0.514-1.195-1.094-1.609-1.676c-0.126-0.176-0.194-0.395-0.194-0.625
	c0-0.215,0.063-0.414,0.193-0.605c0.165-0.227,0.32-0.428,0.476-0.629c0.089-0.115,0.178-0.23,0.267-0.348
	c-0.033-0.074-0.063-0.149-0.092-0.225l-1.275-0.193c-0.498-0.082-0.865-0.524-0.865-1.029v-2.09c0-0.49,0.361-0.941,0.821-1.029
	l1.334-0.206c0.022-0.055,0.045-0.108,0.069-0.164c-0.234-0.317-0.477-0.623-0.725-0.93C3.088,20.322,3,20.088,3,19.845
	c0-0.284,0.118-0.488,0.207-0.617c0.021-0.031,1.526-1.991,2.367-1.991c0.225,0,0.444,0.076,0.651,0.225l0.961,0.759
	c0.034-0.017,0.069-0.03,0.103-0.044c0.054-0.469,0.116-0.949,0.239-1.422c0.113-0.46,0.53-0.788,1.012-0.788h2.059
	c0.526,0,0.968,0.388,1.03,0.903l0.195,1.297c0.04,0.018,0.079,0.033,0.117,0.05l0.943-0.724c0.349-0.318,0.953-0.344,1.363,0.004
	l0.202,0.188c0.475,0.444,1.065,0.999,1.45,1.549c0.117,0.146,0.192,0.368,0.192,0.612c0,0.218-0.064,0.417-0.196,0.609
	c-0.161,0.223-0.314,0.42-0.468,0.619c-0.09,0.117-0.181,0.234-0.271,0.354c0.032,0.072,0.062,0.146,0.091,0.219l1.276,0.199
	c0.496,0.083,0.863,0.525,0.863,1.029v2.093c0.004,0.481-0.357,0.937-0.824,1.026l-1.331,0.205
	c-0.021,0.055-0.043,0.106-0.066,0.158c0.22,0.301,0.456,0.594,0.725,0.926c0.158,0.188,0.249,0.432,0.249,0.676
	c0,0.246-0.083,0.472-0.246,0.666l0,0c0.001,0-1.502,1.938-2.328,1.938c-0.207,0-0.407-0.063-0.615-0.192l-1-0.789
	c-0.034,0.016-0.068,0.028-0.102,0.043c-0.053,0.47-0.115,0.949-0.239,1.424C11.498,31.509,11.081,31.834,10.6,31.834z
	 M8.854,30.433h1.461c0.076-0.371,0.12-0.767,0.163-1.149l0.08-0.693l0.429-0.141c0.244-0.078,0.498-0.186,0.733-0.309l0.404-0.212
	l1.429,1.133c0.304-0.259,0.799-0.778,1.08-1.104c-0.315-0.392-0.587-0.739-0.857-1.138l-0.24-0.354l0.204-0.376
	c0.112-0.207,0.211-0.443,0.312-0.743l0.136-0.405l1.8-0.277l-0.001-1.481L14.179,22.9l-0.126-0.424
	c-0.079-0.262-0.189-0.531-0.33-0.8l-0.2-0.382l0.25-0.352c0.177-0.248,0.362-0.488,0.547-0.727
	c0.096-0.124,0.191-0.247,0.285-0.372c-0.308-0.377-0.714-0.763-1.061-1.088l-1.448,1.11l-0.399-0.215
	c-0.217-0.117-0.452-0.216-0.718-0.301l-0.414-0.134l-0.277-1.849h-1.46c-0.077,0.375-0.122,0.774-0.165,1.164l-0.078,0.683
	l-0.434,0.138c-0.238,0.075-0.49,0.182-0.726,0.307L7.02,19.875l-1.437-1.133c-0.307,0.26-0.8,0.777-1.074,1.099
	c0.298,0.37,0.582,0.739,0.852,1.127l0.245,0.35l-0.199,0.378c-0.134,0.256-0.237,0.5-0.313,0.746l-0.13,0.42l-1.813,0.279v1.482
	l1.811,0.272l0.126,0.431c0.076,0.26,0.187,0.53,0.33,0.805l0.199,0.382l-0.25,0.35c-0.176,0.246-0.359,0.484-0.543,0.722
	c-0.098,0.127-0.196,0.254-0.292,0.382c0.297,0.362,0.707,0.749,1.072,1.084l1.438-1.108L7.44,28.15
	c0.216,0.114,0.454,0.215,0.728,0.305l0.409,0.136L8.854,30.433z M9.569,27.014c-1.695,0-3.075-1.396-3.075-3.111
	s1.379-3.111,3.075-3.111c1.696,0,3.076,1.396,3.076,3.111S11.265,27.014,9.569,27.014z M9.569,22.193
	c-0.922,0-1.671,0.768-1.671,1.709c0,0.942,0.75,1.709,1.671,1.709c0.922,0,1.672-0.767,1.672-1.709
	C11.241,22.961,10.491,22.193,9.569,22.193z"/>
</svg>
