<?xml version="1.0" encoding="utf-8"?>
<!-- Generator: Adobe Illustrator 15.1.0, SVG Export Plug-In . SVG Version: 6.00 Build 0)  -->
<!DOCTYPE svg PUBLIC "-//W3C//DTD SVG 1.1//EN" "http://www.w3.org/Graphics/SVG/1.1/DTD/svg11.dtd">
<svg version="1.1" id="Layer_1" xmlns="http://www.w3.org/2000/svg" xmlns:xlink="http://www.w3.org/1999/xlink" x="0px" y="0px"
	 width="32px" height="32px" viewBox="0 0 32 32" enable-background="new 0 0 32 32" xml:space="preserve">
<g>
	<g>
		<path d="M18.377,31.406h-4.188c-0.728,0-1.341-0.527-1.424-1.228l-0.456-2.997c-0.327-0.118-0.638-0.245-0.938-0.384l-2.293,1.739
			c-0.461,0.4-1.382,0.433-1.924-0.102l-0.157-0.141c-1-0.904-2.244-2.029-3.035-3.123c-0.18-0.249-0.275-0.551-0.275-0.873
			c0-0.308,0.094-0.591,0.287-0.865c0.308-0.415,0.615-0.808,0.924-1.201c0.266-0.339,0.533-0.678,0.793-1.024
			c-0.18-0.374-0.335-0.748-0.466-1.12l-2.991-0.441c-0.687-0.121-1.188-0.731-1.188-1.423v-4.187c0-0.657,0.499-1.292,1.111-1.415
			l3.094-0.466c0.121-0.331,0.262-0.661,0.423-0.995c-0.566-0.775-1.159-1.51-1.722-2.195C3.657,8.623,3.593,8.271,3.593,8.038
			c0-0.385,0.164-0.666,0.307-0.867c0.033-0.045,3.006-3.693,4.253-3.693c0.32,0,0.646,0.117,0.941,0.339l2.242,1.738
			c0.307-0.144,0.619-0.274,0.935-0.391c0.117-1.041,0.24-2.116,0.514-3.147c0.16-0.635,0.738-1.085,1.404-1.085h4.188
			c0.729,0,1.342,0.528,1.425,1.229l0.455,2.995c0.329,0.119,0.641,0.246,0.94,0.385l2.279-1.716
			c0.481-0.433,1.33-0.462,1.897,0.023l0.318,0.292c0.96,0.882,2.155,1.979,2.916,3.047c0.165,0.197,0.271,0.506,0.271,0.851
			c0,0.31-0.094,0.593-0.286,0.866c-0.309,0.417-0.618,0.812-0.929,1.207c-0.265,0.337-0.529,0.675-0.788,1.02
			c0.178,0.37,0.332,0.738,0.463,1.104l2.998,0.458c0.683,0.121,1.184,0.73,1.184,1.42v4.188c0,0.674-0.501,1.296-1.14,1.416
			l-3.073,0.465c-0.136,0.362-0.271,0.683-0.415,0.981c0.56,0.775,1.149,1.492,1.722,2.188c0.23,0.271,0.36,0.611,0.36,0.948
			c0,0.344-0.114,0.645-0.349,0.92c0.001,0.001-2.984,3.642-4.213,3.642c-0.288,0-0.577-0.093-0.885-0.283l-2.299-1.794
			c-0.308,0.144-0.62,0.273-0.934,0.39c-0.117,1.041-0.239,2.115-0.515,3.148C19.623,30.955,19.044,31.406,18.377,31.406z
			 M18.377,29.906v0.75V29.906L18.377,29.906L18.377,29.906z M14.24,29.906h4.1c0.245-0.936,0.358-1.95,0.469-2.933l0.105-0.92
			l0.459-0.148c0.535-0.173,1.09-0.403,1.604-0.669l0.428-0.22l2.967,2.321c0.631-0.356,2.563-2.361,3.084-3.056
			c-0.68-0.806-1.384-1.661-2.055-2.631l-0.263-0.381l0.223-0.406c0.246-0.45,0.457-0.944,0.683-1.601l0.147-0.431l3.824-0.578
			l0.006-4.094l-3.829-0.585l-0.138-0.452c-0.17-0.559-0.411-1.136-0.719-1.717l-0.218-0.413l0.273-0.377
			c0.354-0.49,0.725-0.962,1.094-1.432c0.302-0.384,0.603-0.767,0.893-1.158c-0.66-0.908-1.791-1.947-2.699-2.781l-0.302-0.277
			l-3.021,2.331l-0.419-0.217c-0.482-0.249-1-0.462-1.583-0.649L18.912,6.29l-0.586-3.859h-4.137
			c-0.204,0.908-0.32,1.941-0.432,2.94l-0.104,0.913l-0.46,0.148c-0.545,0.176-1.084,0.401-1.602,0.668l-0.426,0.22L8.184,5.009
			c0.042-0.028,0.083-0.045,0.09-0.048C7.73,5.168,5.627,7.347,5.118,8.046c0.662,0.782,1.373,1.666,2.044,2.615l0.267,0.378
			l-0.217,0.408c-0.292,0.548-0.515,1.074-0.682,1.607l-0.14,0.448l-3.833,0.577l-0.01,4.098l3.832,0.566l0.136,0.459
			c0.168,0.566,0.409,1.148,0.717,1.729l0.219,0.413l-0.274,0.378c-0.355,0.491-0.728,0.966-1.099,1.438
			c-0.3,0.382-0.599,0.764-0.887,1.151c0.686,0.948,1.865,2.015,2.813,2.871l0.182,0.165l3.024-2.308l0.42,0.216
			c0.487,0.251,1.005,0.464,1.583,0.65l0.442,0.143L14.24,29.906z M16.284,21.748c-3.077,0-5.58-2.503-5.58-5.58
			s2.503-5.58,5.58-5.58c3.076,0,5.579,2.503,5.579,5.58S19.359,21.748,16.284,21.748z M16.284,12.089c-2.25,0-4.08,1.83-4.08,4.08
			s1.83,4.08,4.08,4.08c2.249,0,4.079-1.83,4.079-4.08S18.532,12.089,16.284,12.089z"/>
	</g>
</g>
</svg>
