<?xml version="1.0" encoding="utf-8"?>
<!-- Generator: Adobe Illustrator 15.1.0, SVG Export Plug-In . SVG Version: 6.00 Build 0)  -->
<!DOCTYPE svg PUBLIC "-//W3C//DTD SVG 1.1//EN" "http://www.w3.org/Graphics/SVG/1.1/DTD/svg11.dtd">
<svg version="1.1" id="Layer_1" xmlns="http://www.w3.org/2000/svg" xmlns:xlink="http://www.w3.org/1999/xlink" x="0px" y="0px"
	 width="32px" height="32px" viewBox="0 0 32 32" enable-background="new 0 0 32 32" xml:space="preserve">
<path d="M22.678,30.943H9.342c-2.886,0-4.75-1.816-4.75-4.627c0-5.986,2.17-9.419,5.955-9.419c0.475,0,0.801,0.224,1.032,0.419
	c1.573,1.203,2.864,1.701,4.431,1.701c1.565,0,2.858-0.498,4.458-1.722c0.207-0.175,0.533-0.397,1.008-0.397
	c1.457,0,2.688,0.585,3.662,1.738c2.123,2.516,2.271,6.96,2.115,7.87c-0.396,2.347-1.377,3.369-1.484,3.479l-0.078,0.064
	C24.889,30.635,23.848,30.943,22.678,30.943z M10.546,18.25c-4.004,0-4.602,5.054-4.602,8.066c0,2.049,1.27,3.274,3.397,3.274
	h13.336c0.6,0,1.455-0.105,2.162-0.597c0.135-0.16,0.789-0.998,1.08-2.717c0.15-0.895-0.117-4.755-1.818-6.77
	c-0.713-0.845-1.572-1.258-2.627-1.258c-0.02,0-0.043,0-0.162,0.099c-1.318,1.01-2.957,2.021-5.305,2.021
	c-2.347,0-3.985-1.011-5.277-2.001C10.587,18.25,10.563,18.25,10.546,18.25z M16.009,17.408c-3.604,0-6.535-2.931-6.535-6.534
	c0-3.604,2.931-6.535,6.535-6.535c3.606,0,6.538,2.931,6.538,6.535C22.547,14.478,19.615,17.408,16.009,17.408z M16.009,5.691
	c-2.857,0-5.182,2.326-5.182,5.183s2.325,5.182,5.182,5.182c2.86,0,5.185-2.325,5.185-5.182S18.869,5.691,16.009,5.691z
	 M5.125,17.277H3.186c-1.76,0-2.942-1-2.942-2.488c0-0.636-0.001-1.812,0.208-2.842c0.365-1.794,1.192-2.17,1.822-2.17
	c0.183,0,0.357,0.094,0.674,0.266c0.582,0.314,1.556,0.841,2.711,0.841c0.539,0,1.061-0.091,1.594-0.277l0.642-0.224l-0.092,0.673
	c-0.036,0.268-0.061,0.535-0.061,0.803c0,1.084,0.348,2.184,0.98,3.095l0.438,0.631l-0.769,0.022
	c-1.237,0.036-2.353,0.575-3.143,1.519L5.125,17.277z M2.211,10.603c-0.401,0.007-0.74,0.513-0.943,1.511
	c-0.193,0.948-0.192,2.066-0.192,2.604c0,1.292,1.09,1.726,2.109,1.726h1.555c0.78-0.864,1.8-1.418,2.936-1.602
	C7.179,13.923,6.91,12.887,6.91,11.86c0-0.096,0.002-0.192,0.007-0.288c-0.416,0.097-0.832,0.145-1.257,0.145
	c-1.366,0-2.499-0.612-3.107-0.941C2.399,10.693,2.285,10.626,2.211,10.603z M5.66,9.452c-2.067,0-3.75-1.682-3.75-3.75
	c0-2.067,1.682-3.749,3.75-3.749s3.75,1.682,3.75,3.749C9.409,7.77,7.727,9.452,5.66,9.452z M5.66,2.786
	c-1.608,0-2.917,1.308-2.917,2.916c0,1.608,1.309,2.917,2.917,2.917S8.576,7.31,8.576,5.702C8.576,4.094,7.268,2.786,5.66,2.786z
	 M26.342,9.068c-2.068,0-3.751-1.682-3.751-3.75s1.683-3.75,3.751-3.75c2.067,0,3.749,1.682,3.749,3.75S28.409,9.068,26.342,9.068z
	 M26.342,2.402c-1.608,0-2.917,1.309-2.917,2.917s1.309,2.917,2.917,2.917c1.607,0,2.915-1.309,2.915-2.917
	S27.949,2.402,26.342,2.402z M28.814,16.893h-1.938l-0.125-0.148c-0.79-0.943-1.906-1.482-3.144-1.518l-0.769-0.022l0.438-0.631
	c0.632-0.911,0.979-2.01,0.979-3.096c0-0.268-0.023-0.535-0.061-0.803L24.104,10l0.642,0.224c0.533,0.186,1.056,0.276,1.596,0.276
	c1.155,0,2.129-0.526,2.711-0.841c0.316-0.171,0.491-0.266,0.674-0.266c0.63,0,1.456,0.376,1.821,2.17
	c0.21,1.031,0.209,2.206,0.209,2.771C31.757,15.894,30.574,16.893,28.814,16.893z M27.26,16.06h1.555
	c1.02,0,2.108-0.434,2.108-1.653c0.001-0.609,0.002-1.728-0.191-2.676c-0.203-0.998-0.541-1.503-1.005-1.503
	c-0.011,0.016-0.125,0.083-0.278,0.166c-0.608,0.329-1.74,0.941-3.106,0.941c-0.427,0-0.843-0.047-1.259-0.145
	c0.005,0.096,0.008,0.192,0.008,0.288c0,1.027-0.27,2.064-0.768,2.982C25.459,14.643,26.479,15.196,27.26,16.06z"/>
</svg>
