<?xml version="1.0" encoding="utf-8"?>
<!-- Generator: Adobe Illustrator 15.1.0, SVG Export Plug-In . SVG Version: 6.00 Build 0)  -->
<!DOCTYPE svg PUBLIC "-//W3C//DTD SVG 1.1//EN" "http://www.w3.org/Graphics/SVG/1.1/DTD/svg11.dtd">
<svg version="1.1" id="Layer_1" xmlns="http://www.w3.org/2000/svg" xmlns:xlink="http://www.w3.org/1999/xlink" x="0px" y="0px"
	 width="32px" height="32px" viewBox="0 0 32 32" enable-background="new 0 0 32 32" xml:space="preserve">
<path d="M15.867,30.941c-8.298,0-15.048-6.75-15.048-15.047c0-8.297,6.75-15.047,15.048-15.047c8.298,0,15.049,6.75,15.049,15.047
	C30.916,24.191,24.165,30.941,15.867,30.941z M15.867,2.347c-7.471,0-13.548,6.077-13.548,13.547c0,7.47,6.078,13.547,13.548,13.547
	c7.471,0,13.549-6.077,13.549-13.547C29.416,8.424,23.338,2.347,15.867,2.347z M12.847,24.975l2.11-10.578
	c0.137-0.708,0.205-1.313,0.205-1.816c0-0.272-0.079-0.439-0.236-0.499s-0.693-0.124-1.605-0.192l-0.23-0.013l0.153-0.793h4.906
	l-2.113,10.578c-0.136,0.699-0.205,1.309-0.205,1.828c0,0.273,0.079,0.439,0.237,0.499s0.693,0.119,1.605,0.179l0.23,0.013
	l-0.153,0.794H12.847z M16.118,8.564l0.501-2.52h2.533l-0.502,2.52H16.118z"/>
</svg>
